<svg width="24" height="24" viewBox="0 0 24 24" fill="none" xmlns="http://www.w3.org/2000/svg">
<path d="M20.9999 8.25002V15.75C20.9999 16.1479 20.8419 16.5294 20.5606 16.8107C20.2793 17.092 19.8978 17.25 19.4999 17.25H11.9999V21C12.0004 21.1481 11.957 21.293 11.8753 21.4164C11.7935 21.5399 11.6771 21.6364 11.5406 21.6938C11.402 21.7478 11.251 21.7615 11.105 21.7333C10.959 21.7051 10.824 21.6361 10.7156 21.5344L1.71557 12.5344C1.57474 12.3922 1.49573 12.2002 1.49573 12C1.49573 11.7999 1.57474 11.6078 1.71557 11.4656L10.7156 2.46565C10.824 2.36391 10.959 2.29494 11.105 2.26674C11.251 2.23853 11.402 2.25224 11.5406 2.30627C11.6771 2.36365 11.7935 2.46015 11.8753 2.58361C11.957 2.70706 12.0004 2.85196 11.9999 3.00002V6.75002H19.4999C19.8978 6.75002 20.2793 6.90806 20.5606 7.18936C20.8419 7.47067 20.9999 7.8522 20.9999 8.25002Z" fill="#EC840A"/>
</svg>
