<svg width="16" height="16" viewBox="0 0 16 16" fill="none" xmlns="http://www.w3.org/2000/svg">
<path fill-rule="evenodd" clip-rule="evenodd" d="M2.07868 8.3115C1.97402 8.1175 1.97402 7.88216 2.07868 7.68816C3.34002 5.3555 5.67002 3.3335 8.00002 3.3335C10.33 3.3335 12.66 5.3555 13.9214 7.68883C14.026 7.88283 14.026 8.11816 13.9214 8.31216C12.66 10.6448 10.33 12.6668 8.00002 12.6668C5.67002 12.6668 3.34002 10.6448 2.07868 8.3115Z" stroke="white" stroke-width="1.5" stroke-linecap="round" stroke-linejoin="round"/>
<path d="M9.41421 6.58579C10.1953 7.36683 10.1953 8.63316 9.41421 9.41421C8.63316 10.1953 7.36683 10.1953 6.58579 9.41421C5.80474 8.63316 5.80474 7.36683 6.58579 6.58579C7.36683 5.80474 8.63316 5.80474 9.41421 6.58579" stroke="white" stroke-width="1.5" stroke-linecap="round" stroke-linejoin="round"/>
</svg>
