<svg width="24" height="24" viewBox="0 0 24 24" fill="none" xmlns="http://www.w3.org/2000/svg">
<path d="M12.2079 4.43589C12.1355 4.36663 12.0391 4.32798 11.9389 4.32798C11.8388 4.32798 11.7424 4.36663 11.67 4.43589L2.7175 12.9882C2.67948 13.0246 2.64924 13.0683 2.62859 13.1167C2.60794 13.1651 2.59733 13.2172 2.59739 13.2698L2.59593 21.2964C2.59593 21.7091 2.75988 22.1049 3.05171 22.3967C3.34354 22.6886 3.73934 22.8525 4.15205 22.8525H8.82526C9.03161 22.8525 9.22951 22.7705 9.37543 22.6246C9.52134 22.4787 9.60332 22.2808 9.60332 22.0745V15.461C9.60332 15.3578 9.6443 15.2588 9.71726 15.1859C9.79022 15.1129 9.88917 15.0719 9.99234 15.0719H13.8826C13.9858 15.0719 14.0848 15.1129 14.1577 15.1859C14.2307 15.2588 14.2717 15.3578 14.2717 15.461V22.0745C14.2717 22.2808 14.3536 22.4787 14.4996 22.6246C14.6455 22.7705 14.8434 22.8525 15.0497 22.8525H19.721C20.1337 22.8525 20.5295 22.6886 20.8213 22.3967C21.1132 22.1049 21.2771 21.7091 21.2771 21.2964V13.2698C21.2772 13.2172 21.2666 13.1651 21.2459 13.1167C21.2253 13.0683 21.195 13.0246 21.157 12.9882L12.2079 4.43589Z" fill="#EC840A"/>
<path d="M23.3608 11.3835L19.7234 7.90359V2.62301C19.7234 2.41666 19.6414 2.21875 19.4955 2.07284C19.3496 1.92693 19.1517 1.84495 18.9454 1.84495H16.6112C16.4048 1.84495 16.2069 1.92693 16.061 2.07284C15.9151 2.21875 15.8331 2.41666 15.8331 2.62301V4.17913L13.0166 1.48607C12.753 1.21959 12.361 1.06689 11.9375 1.06689C11.5154 1.06689 11.1244 1.21959 10.8609 1.48656L0.517544 11.3825C0.215074 11.6743 0.177143 12.1542 0.452381 12.4703C0.521498 12.5501 0.606126 12.615 0.701116 12.661C0.796106 12.7071 0.899471 12.7333 1.00492 12.7381C1.11037 12.7429 1.2157 12.7262 1.31449 12.6891C1.41329 12.6519 1.50348 12.595 1.57959 12.5219L11.67 2.87977C11.7424 2.81051 11.8388 2.77186 11.9389 2.77186C12.0391 2.77186 12.1355 2.81051 12.2079 2.87977L22.2993 12.5219C22.4479 12.6644 22.647 12.7422 22.853 12.7382C23.0589 12.7342 23.2548 12.6487 23.3978 12.5005C23.6964 12.1912 23.6716 11.6806 23.3608 11.3835Z" fill="#EC840A"/>
</svg>
